<?xml version="1.0" standalone="no"?>
<!DOCTYPE svg PUBLIC "-//W3C//DTD SVG 20010904//EN"
 "http://www.w3.org/TR/2001/REC-SVG-20010904/DTD/svg10.dtd">
<svg version="1.0" xmlns="http://www.w3.org/2000/svg"
 width="400.000000pt" height="400.000000pt" viewBox="0 0 400.000000 400.000000"
 preserveAspectRatio="xMidYMid meet">
<metadata>
Created by potrace 1.14, written by Peter Selinger 2001-2017
</metadata>
<g transform="translate(0.000000,400.000000) scale(0.100000,-0.100000)"
fill="#000000" stroke="none">
<path d="M3800 3804 c-63 -28 -187 -52 -375 -74 -235 -27 -434 -138 -609 -342
-53 -62 -55 -62 -95 3 -26 42 -26 65 -1 131 45 119 6 196 -120 240 -70 25
-105 28 -281 28 -243 0 -385 -18 -568 -71 -417 -120 -689 -412 -741 -797 -17
-120 -8 -293 20 -397 26 -97 100 -254 147 -313 20 -24 33 -46 29 -49 -5 -5
-79 -1 -516 28 -80 5 -239 14 -354 21 l-209 12 -18 -23 c-28 -34 -32 -12 63
-371 16 -63 47 -183 68 -267 21 -84 41 -156 44 -161 3 -5 34 -19 68 -32 35
-12 77 -28 93 -36 29 -13 77 -31 243 -92 67 -25 73 -29 69 -51 -10 -53 21 -91
117 -144 57 -32 173 -54 228 -43 19 3 43 15 53 26 21 24 27 24 68 6 77 -33
130 -48 157 -42 28 5 29 5 35 -52 8 -66 36 -181 64 -267 21 -60 21 -60 1 -77
-11 -9 -44 -24 -73 -33 -28 -8 -68 -20 -87 -26 -19 -6 -54 -22 -78 -35 -89
-52 -34 -112 144 -159 239 -62 775 -97 1166 -76 399 22 681 68 786 128 34 20
42 30 42 54 0 23 -8 33 -46 55 -46 27 -198 74 -241 74 -23 0 -23 1 -23 148 0
220 -22 423 -71 650 -12 52 -11 54 18 85 92 99 153 258 153 403 0 157 -42 305
-114 396 l-24 31 54 89 c30 49 54 90 54 92 0 2 47 83 105 181 61 104 105 189
105 205 0 14 -13 41 -28 59 -23 27 -35 34 -69 35 -28 0 -48 -6 -63 -19 -21
-19 -170 -261 -235 -383 -15 -28 -30 -50 -33 -47 -3 3 3 42 12 88 19 90 18
300 -2 385 l-10 44 52 -9 c28 -4 110 -8 181 -7 141 1 170 8 351 88 44 20 118
44 163 53 47 10 86 24 89 31 2 8 -17 35 -44 62 -56 55 -84 103 -84 142 0 53
-29 51 -95 -6 -189 -165 -329 -226 -514 -226 -120 0 -171 21 -171 70 0 17 94
104 158 146 225 150 462 175 828 87 33 -8 36 21 12 93 l-23 64 23 82 c13 46
24 92 25 103 3 26 -27 30 -73 9z m-2310 -1883 c0 -3 -14 -22 -30 -41 -33 -38
-36 -33 -24 42 6 36 7 37 30 21 13 -8 24 -18 24 -22z m-814 -38 l72 -54 72 12
c39 6 74 9 76 6 3 -3 -20 -40 -51 -83 -55 -77 -57 -80 -50 -129 3 -27 11 -67
17 -88 6 -20 8 -40 5 -43 -3 -4 -48 23 -99 60 -50 37 -98 64 -105 62 -26 -10
-113 -18 -113 -11 0 5 17 31 38 59 73 99 71 93 56 176 -7 41 -13 81 -13 88 -1
16 4 13 95 -55z m1541 -960 c88 -41 227 -153 303 -243 l38 -45 -197 3 c-108 2
-270 -1 -361 -6 -91 -6 -167 -9 -168 -7 -5 5 39 88 100 192 84 142 154 168
285 106z"/>
<path d="M667 1762 c-23 -25 -21 -59 2 -72 32 -17 60 -11 77 15 15 23 15 27 0
50 -20 30 -56 33 -79 7z"/>
</g>
</svg>
